<mxfile host="app.diagrams.net" modified="2024-01-15T13:53:10.280Z" agent="Mozilla/5.0 (Windows NT 10.0; Win64; x64) AppleWebKit/537.36 (KHTML, like Gecko) Chrome/120.0.0.0 Safari/537.36" etag="0jifTfrF4LXVFVGY7J4r" version="22.1.18" type="device">
  <diagram id="C5RBs43oDa-KdzZeNtuy" name="Page-1">
    <mxGraphModel dx="1750" dy="963" grid="1" gridSize="10" guides="1" tooltips="1" connect="1" arrows="1" fold="1" page="1" pageScale="1" pageWidth="1169" pageHeight="827" math="0" shadow="0">
      <root>
        <mxCell id="WIyWlLk6GJQsqaUBKTNV-0" />
        <mxCell id="WIyWlLk6GJQsqaUBKTNV-1" parent="WIyWlLk6GJQsqaUBKTNV-0" />
        <mxCell id="Ly2iW8BKjako70erzY-6-7" style="edgeStyle=orthogonalEdgeStyle;rounded=0;orthogonalLoop=1;jettySize=auto;html=1;exitX=0.5;exitY=1;exitDx=0;exitDy=0;entryX=0.5;entryY=0;entryDx=0;entryDy=0;" edge="1" parent="WIyWlLk6GJQsqaUBKTNV-1">
          <mxGeometry relative="1" as="geometry">
            <mxPoint x="603" y="80" as="sourcePoint" />
            <mxPoint x="603" y="140" as="targetPoint" />
          </mxGeometry>
        </mxCell>
        <mxCell id="Ly2iW8BKjako70erzY-6-0" value="Start" style="ellipse;whiteSpace=wrap;html=1;" vertex="1" parent="WIyWlLk6GJQsqaUBKTNV-1">
          <mxGeometry x="560" y="20" width="90" height="60" as="geometry" />
        </mxCell>
        <mxCell id="Ly2iW8BKjako70erzY-6-8" style="edgeStyle=orthogonalEdgeStyle;rounded=0;orthogonalLoop=1;jettySize=auto;html=1;exitX=0.5;exitY=1;exitDx=0;exitDy=0;" edge="1" parent="WIyWlLk6GJQsqaUBKTNV-1">
          <mxGeometry relative="1" as="geometry">
            <mxPoint x="603" y="180" as="sourcePoint" />
            <mxPoint x="603" y="230" as="targetPoint" />
          </mxGeometry>
        </mxCell>
        <mxCell id="Ly2iW8BKjako70erzY-6-1" value="Login" style="rounded=0;whiteSpace=wrap;html=1;" vertex="1" parent="WIyWlLk6GJQsqaUBKTNV-1">
          <mxGeometry x="545" y="140" width="120" height="40" as="geometry" />
        </mxCell>
        <mxCell id="Ly2iW8BKjako70erzY-6-5" value="NO" style="edgeStyle=orthogonalEdgeStyle;rounded=0;orthogonalLoop=1;jettySize=auto;html=1;exitX=1;exitY=0.5;exitDx=0;exitDy=0;entryX=1;entryY=0.5;entryDx=0;entryDy=0;" edge="1" parent="WIyWlLk6GJQsqaUBKTNV-1" source="Ly2iW8BKjako70erzY-6-2" target="Ly2iW8BKjako70erzY-6-1">
          <mxGeometry relative="1" as="geometry">
            <Array as="points">
              <mxPoint x="711" y="270" />
              <mxPoint x="711" y="160" />
            </Array>
          </mxGeometry>
        </mxCell>
        <mxCell id="Ly2iW8BKjako70erzY-6-9" style="edgeStyle=orthogonalEdgeStyle;rounded=0;orthogonalLoop=1;jettySize=auto;html=1;exitX=0.5;exitY=1;exitDx=0;exitDy=0;" edge="1" parent="WIyWlLk6GJQsqaUBKTNV-1">
          <mxGeometry relative="1" as="geometry">
            <mxPoint x="603" y="310" as="sourcePoint" />
            <mxPoint x="603" y="350" as="targetPoint" />
          </mxGeometry>
        </mxCell>
        <mxCell id="Ly2iW8BKjako70erzY-6-10" value="Yes" style="edgeLabel;html=1;align=center;verticalAlign=middle;resizable=0;points=[];" vertex="1" connectable="0" parent="Ly2iW8BKjako70erzY-6-9">
          <mxGeometry x="-0.4767" y="-2" relative="1" as="geometry">
            <mxPoint as="offset" />
          </mxGeometry>
        </mxCell>
        <mxCell id="Ly2iW8BKjako70erzY-6-2" value="Password" style="rhombus;whiteSpace=wrap;html=1;" vertex="1" parent="WIyWlLk6GJQsqaUBKTNV-1">
          <mxGeometry x="565" y="230" width="80" height="80" as="geometry" />
        </mxCell>
        <mxCell id="Ly2iW8BKjako70erzY-6-13" style="edgeStyle=orthogonalEdgeStyle;rounded=0;orthogonalLoop=1;jettySize=auto;html=1;" edge="1" parent="WIyWlLk6GJQsqaUBKTNV-1" source="Ly2iW8BKjako70erzY-6-6" target="Ly2iW8BKjako70erzY-6-11">
          <mxGeometry relative="1" as="geometry" />
        </mxCell>
        <mxCell id="Ly2iW8BKjako70erzY-6-15" style="edgeStyle=orthogonalEdgeStyle;rounded=0;orthogonalLoop=1;jettySize=auto;html=1;exitX=1;exitY=0.5;exitDx=0;exitDy=0;entryX=0;entryY=0.5;entryDx=0;entryDy=0;" edge="1" parent="WIyWlLk6GJQsqaUBKTNV-1" source="Ly2iW8BKjako70erzY-6-6" target="Ly2iW8BKjako70erzY-6-12">
          <mxGeometry relative="1" as="geometry" />
        </mxCell>
        <mxCell id="Ly2iW8BKjako70erzY-6-6" value="Authenticate" style="rounded=0;whiteSpace=wrap;html=1;" vertex="1" parent="WIyWlLk6GJQsqaUBKTNV-1">
          <mxGeometry x="542" y="350" width="126" height="40" as="geometry" />
        </mxCell>
        <mxCell id="Ly2iW8BKjako70erzY-6-24" style="edgeStyle=orthogonalEdgeStyle;rounded=0;orthogonalLoop=1;jettySize=auto;html=1;exitX=0.5;exitY=1;exitDx=0;exitDy=0;entryX=0.5;entryY=0;entryDx=0;entryDy=0;" edge="1" parent="WIyWlLk6GJQsqaUBKTNV-1" source="Ly2iW8BKjako70erzY-6-11" target="Ly2iW8BKjako70erzY-6-21">
          <mxGeometry relative="1" as="geometry" />
        </mxCell>
        <mxCell id="Ly2iW8BKjako70erzY-6-25" style="edgeStyle=orthogonalEdgeStyle;rounded=0;orthogonalLoop=1;jettySize=auto;html=1;exitX=0.5;exitY=1;exitDx=0;exitDy=0;entryX=0.5;entryY=0;entryDx=0;entryDy=0;" edge="1" parent="WIyWlLk6GJQsqaUBKTNV-1" source="Ly2iW8BKjako70erzY-6-11" target="Ly2iW8BKjako70erzY-6-20">
          <mxGeometry relative="1" as="geometry" />
        </mxCell>
        <mxCell id="Ly2iW8BKjako70erzY-6-26" style="edgeStyle=orthogonalEdgeStyle;rounded=0;orthogonalLoop=1;jettySize=auto;html=1;exitX=0.5;exitY=1;exitDx=0;exitDy=0;entryX=0.5;entryY=0;entryDx=0;entryDy=0;" edge="1" parent="WIyWlLk6GJQsqaUBKTNV-1" source="Ly2iW8BKjako70erzY-6-11" target="Ly2iW8BKjako70erzY-6-19">
          <mxGeometry relative="1" as="geometry" />
        </mxCell>
        <mxCell id="Ly2iW8BKjako70erzY-6-27" style="edgeStyle=orthogonalEdgeStyle;rounded=0;orthogonalLoop=1;jettySize=auto;html=1;exitX=0.5;exitY=1;exitDx=0;exitDy=0;" edge="1" parent="WIyWlLk6GJQsqaUBKTNV-1" source="Ly2iW8BKjako70erzY-6-11" target="Ly2iW8BKjako70erzY-6-22">
          <mxGeometry relative="1" as="geometry" />
        </mxCell>
        <mxCell id="Ly2iW8BKjako70erzY-6-28" style="edgeStyle=orthogonalEdgeStyle;rounded=0;orthogonalLoop=1;jettySize=auto;html=1;exitX=0.5;exitY=1;exitDx=0;exitDy=0;entryX=0.5;entryY=0;entryDx=0;entryDy=0;" edge="1" parent="WIyWlLk6GJQsqaUBKTNV-1" source="Ly2iW8BKjako70erzY-6-11" target="Ly2iW8BKjako70erzY-6-18">
          <mxGeometry relative="1" as="geometry" />
        </mxCell>
        <mxCell id="Ly2iW8BKjako70erzY-6-29" style="edgeStyle=orthogonalEdgeStyle;rounded=0;orthogonalLoop=1;jettySize=auto;html=1;exitX=0.5;exitY=1;exitDx=0;exitDy=0;entryX=0.5;entryY=0;entryDx=0;entryDy=0;" edge="1" parent="WIyWlLk6GJQsqaUBKTNV-1" source="Ly2iW8BKjako70erzY-6-11" target="Ly2iW8BKjako70erzY-6-17">
          <mxGeometry relative="1" as="geometry" />
        </mxCell>
        <mxCell id="Ly2iW8BKjako70erzY-6-11" value="User" style="rounded=0;whiteSpace=wrap;html=1;" vertex="1" parent="WIyWlLk6GJQsqaUBKTNV-1">
          <mxGeometry x="230" y="350" width="126" height="40" as="geometry" />
        </mxCell>
        <mxCell id="Ly2iW8BKjako70erzY-6-30" style="edgeStyle=orthogonalEdgeStyle;rounded=0;orthogonalLoop=1;jettySize=auto;html=1;exitX=0.5;exitY=1;exitDx=0;exitDy=0;entryX=0.5;entryY=0;entryDx=0;entryDy=0;" edge="1" parent="WIyWlLk6GJQsqaUBKTNV-1" source="Ly2iW8BKjako70erzY-6-12" target="Ly2iW8BKjako70erzY-6-16">
          <mxGeometry relative="1" as="geometry" />
        </mxCell>
        <mxCell id="Ly2iW8BKjako70erzY-6-32" style="edgeStyle=orthogonalEdgeStyle;rounded=0;orthogonalLoop=1;jettySize=auto;html=1;exitX=0.5;exitY=1;exitDx=0;exitDy=0;entryX=0.75;entryY=0;entryDx=0;entryDy=0;" edge="1" parent="WIyWlLk6GJQsqaUBKTNV-1" source="Ly2iW8BKjako70erzY-6-12" target="Ly2iW8BKjako70erzY-6-17">
          <mxGeometry relative="1" as="geometry" />
        </mxCell>
        <mxCell id="Ly2iW8BKjako70erzY-6-33" style="edgeStyle=orthogonalEdgeStyle;rounded=0;orthogonalLoop=1;jettySize=auto;html=1;exitX=0.5;exitY=1;exitDx=0;exitDy=0;entryX=0.75;entryY=0;entryDx=0;entryDy=0;" edge="1" parent="WIyWlLk6GJQsqaUBKTNV-1" source="Ly2iW8BKjako70erzY-6-12" target="Ly2iW8BKjako70erzY-6-18">
          <mxGeometry relative="1" as="geometry">
            <Array as="points">
              <mxPoint x="943" y="420" />
              <mxPoint x="732" y="420" />
            </Array>
          </mxGeometry>
        </mxCell>
        <mxCell id="Ly2iW8BKjako70erzY-6-12" value="Admin" style="rounded=0;whiteSpace=wrap;html=1;" vertex="1" parent="WIyWlLk6GJQsqaUBKTNV-1">
          <mxGeometry x="880" y="350" width="126" height="40" as="geometry" />
        </mxCell>
        <mxCell id="Ly2iW8BKjako70erzY-6-43" style="edgeStyle=orthogonalEdgeStyle;rounded=0;orthogonalLoop=1;jettySize=auto;html=1;exitX=0.5;exitY=1;exitDx=0;exitDy=0;" edge="1" parent="WIyWlLk6GJQsqaUBKTNV-1" source="Ly2iW8BKjako70erzY-6-16" target="Ly2iW8BKjako70erzY-6-34">
          <mxGeometry relative="1" as="geometry" />
        </mxCell>
        <mxCell id="Ly2iW8BKjako70erzY-6-16" value="Delete User" style="rounded=0;whiteSpace=wrap;html=1;" vertex="1" parent="WIyWlLk6GJQsqaUBKTNV-1">
          <mxGeometry x="959" y="460" width="107" height="40" as="geometry" />
        </mxCell>
        <mxCell id="Ly2iW8BKjako70erzY-6-42" style="edgeStyle=orthogonalEdgeStyle;rounded=0;orthogonalLoop=1;jettySize=auto;html=1;exitX=0.5;exitY=1;exitDx=0;exitDy=0;entryX=0.5;entryY=0;entryDx=0;entryDy=0;" edge="1" parent="WIyWlLk6GJQsqaUBKTNV-1" source="Ly2iW8BKjako70erzY-6-17" target="Ly2iW8BKjako70erzY-6-34">
          <mxGeometry relative="1" as="geometry" />
        </mxCell>
        <mxCell id="Ly2iW8BKjako70erzY-6-17" value="Delete Post" style="rounded=0;whiteSpace=wrap;html=1;" vertex="1" parent="WIyWlLk6GJQsqaUBKTNV-1">
          <mxGeometry x="811" y="460" width="107" height="40" as="geometry" />
        </mxCell>
        <mxCell id="Ly2iW8BKjako70erzY-6-41" style="edgeStyle=orthogonalEdgeStyle;rounded=0;orthogonalLoop=1;jettySize=auto;html=1;exitX=0.5;exitY=1;exitDx=0;exitDy=0;entryX=0.5;entryY=0;entryDx=0;entryDy=0;" edge="1" parent="WIyWlLk6GJQsqaUBKTNV-1" source="Ly2iW8BKjako70erzY-6-18" target="Ly2iW8BKjako70erzY-6-34">
          <mxGeometry relative="1" as="geometry" />
        </mxCell>
        <mxCell id="Ly2iW8BKjako70erzY-6-18" value="Communicate" style="rounded=0;whiteSpace=wrap;html=1;" vertex="1" parent="WIyWlLk6GJQsqaUBKTNV-1">
          <mxGeometry x="652" y="460" width="107" height="40" as="geometry" />
        </mxCell>
        <mxCell id="Ly2iW8BKjako70erzY-6-40" style="edgeStyle=orthogonalEdgeStyle;rounded=0;orthogonalLoop=1;jettySize=auto;html=1;exitX=0.5;exitY=1;exitDx=0;exitDy=0;entryX=0.5;entryY=0;entryDx=0;entryDy=0;" edge="1" parent="WIyWlLk6GJQsqaUBKTNV-1" source="Ly2iW8BKjako70erzY-6-19" target="Ly2iW8BKjako70erzY-6-34">
          <mxGeometry relative="1" as="geometry" />
        </mxCell>
        <mxCell id="Ly2iW8BKjako70erzY-6-19" value="Apply For Jobs" style="rounded=0;whiteSpace=wrap;html=1;" vertex="1" parent="WIyWlLk6GJQsqaUBKTNV-1">
          <mxGeometry x="489" y="460" width="107" height="40" as="geometry" />
        </mxCell>
        <mxCell id="Ly2iW8BKjako70erzY-6-38" style="edgeStyle=orthogonalEdgeStyle;rounded=0;orthogonalLoop=1;jettySize=auto;html=1;exitX=0.5;exitY=1;exitDx=0;exitDy=0;entryX=0.5;entryY=0;entryDx=0;entryDy=0;" edge="1" parent="WIyWlLk6GJQsqaUBKTNV-1" source="Ly2iW8BKjako70erzY-6-20" target="Ly2iW8BKjako70erzY-6-34">
          <mxGeometry relative="1" as="geometry" />
        </mxCell>
        <mxCell id="Ly2iW8BKjako70erzY-6-20" value="Create Post" style="rounded=0;whiteSpace=wrap;html=1;" vertex="1" parent="WIyWlLk6GJQsqaUBKTNV-1">
          <mxGeometry x="329" y="460" width="107" height="40" as="geometry" />
        </mxCell>
        <mxCell id="Ly2iW8BKjako70erzY-6-37" style="edgeStyle=orthogonalEdgeStyle;rounded=0;orthogonalLoop=1;jettySize=auto;html=1;exitX=0.5;exitY=1;exitDx=0;exitDy=0;entryX=0.5;entryY=0;entryDx=0;entryDy=0;" edge="1" parent="WIyWlLk6GJQsqaUBKTNV-1" source="Ly2iW8BKjako70erzY-6-21" target="Ly2iW8BKjako70erzY-6-34">
          <mxGeometry relative="1" as="geometry" />
        </mxCell>
        <mxCell id="Ly2iW8BKjako70erzY-6-21" value="Update Profile" style="rounded=0;whiteSpace=wrap;html=1;" vertex="1" parent="WIyWlLk6GJQsqaUBKTNV-1">
          <mxGeometry x="173" y="460" width="107" height="40" as="geometry" />
        </mxCell>
        <mxCell id="Ly2iW8BKjako70erzY-6-35" style="edgeStyle=orthogonalEdgeStyle;rounded=0;orthogonalLoop=1;jettySize=auto;html=1;exitX=0.5;exitY=1;exitDx=0;exitDy=0;" edge="1" parent="WIyWlLk6GJQsqaUBKTNV-1" source="Ly2iW8BKjako70erzY-6-22" target="Ly2iW8BKjako70erzY-6-34">
          <mxGeometry relative="1" as="geometry" />
        </mxCell>
        <mxCell id="Ly2iW8BKjako70erzY-6-22" value="Surf Website" style="rounded=0;whiteSpace=wrap;html=1;" vertex="1" parent="WIyWlLk6GJQsqaUBKTNV-1">
          <mxGeometry x="10" y="460" width="107" height="40" as="geometry" />
        </mxCell>
        <mxCell id="Ly2iW8BKjako70erzY-6-46" style="edgeStyle=orthogonalEdgeStyle;rounded=0;orthogonalLoop=1;jettySize=auto;html=1;exitX=0.5;exitY=1;exitDx=0;exitDy=0;" edge="1" parent="WIyWlLk6GJQsqaUBKTNV-1" source="Ly2iW8BKjako70erzY-6-34" target="Ly2iW8BKjako70erzY-6-45">
          <mxGeometry relative="1" as="geometry" />
        </mxCell>
        <mxCell id="Ly2iW8BKjako70erzY-6-34" value="Log Out" style="rounded=0;whiteSpace=wrap;html=1;" vertex="1" parent="WIyWlLk6GJQsqaUBKTNV-1">
          <mxGeometry x="553.5" y="600" width="107" height="40" as="geometry" />
        </mxCell>
        <mxCell id="Ly2iW8BKjako70erzY-6-45" value="Stop" style="ellipse;whiteSpace=wrap;html=1;" vertex="1" parent="WIyWlLk6GJQsqaUBKTNV-1">
          <mxGeometry x="562" y="680" width="90" height="60" as="geometry" />
        </mxCell>
      </root>
    </mxGraphModel>
  </diagram>
</mxfile>
